<svg xmlns="http://www.w3.org/2000/svg" viewBox="0 0 205.98 79.56"><defs><style>.cls-1{fill:#51c1e0;}</style></defs><g id="Layer_2" data-name="Layer 2"><g id="Vrstva_2" data-name="Vrstva 2"><path class="cls-1" d="M5.4,71.07a3.06,3.06,0,0,1,.26-1.22,2.94,2.94,0,0,1,5.4,0,3.06,3.06,0,0,1,.26,1.22,3,3,0,1,1-5.92,0M54,5.48a3,3,0,0,1,3,3,3.1,3.1,0,0,1-.26,1.22A3,3,0,1,1,54,5.48M11.06,63.05V49.88L54.81,35a2.74,2.74,0,0,0,1.84-2.6V16.51a8.36,8.36,0,1,0-5.4,0V30.43L7.5,45.31a2.74,2.74,0,0,0-1.84,2.6V63.05a8.5,8.5,0,0,0,2.7,16.51,8.5,8.5,0,0,0,2.7-16.51"/><path class="cls-1" d="M11.32,8.49a3.06,3.06,0,0,1-.26,1.22,2.94,2.94,0,0,1-5.4,0A2.93,2.93,0,0,1,5.4,8.49a3,3,0,1,1,5.92,0M31.15,20.55a3,3,0,0,1,0,6h-.29a3,3,0,0,1-2.66-3,3,3,0,0,1,.95-2.21,2.94,2.94,0,0,1,2-.79m-25.49-4v14.8a2.75,2.75,0,0,0,1.12,2.22,2.69,2.69,0,0,0,1.58.52,2.55,2.55,0,0,0,.86-.15l15.3-5.2A8.32,8.32,0,0,0,31.15,32,8.49,8.49,0,1,0,22.8,23.5l-11.74,4v-11a8.46,8.46,0,0,0,5.65-8A8.43,8.43,0,0,0,8.36,0a8.5,8.5,0,0,0-2.7,16.51"/><path class="cls-1" d="M51,71.07a2.9,2.9,0,0,1,.26-1.22,2.94,2.94,0,0,1,5.4,0,3.06,3.06,0,0,1,.26,1.22,3,3,0,1,1-5.92,0M31.15,59.76a3,3,0,0,1,0-6h.29A3,3,0,0,1,33.15,59a2.92,2.92,0,0,1-2,.79m25.5,3.29V49a2.73,2.73,0,0,0-1.13-2.22,2.67,2.67,0,0,0-2.43-.37l-15.31,5.2a8.32,8.32,0,0,0-6.63-3.34,8.49,8.49,0,1,0,8.36,8.54l11.74-4V63.05a8.35,8.35,0,1,0,5.4,0"/><path class="cls-1" d="M76.31,46.28a1.19,1.19,0,0,1,.52-.94,2.11,2.11,0,0,1,1.35-.41h4.37a13.38,13.38,0,0,1,3.54.4,6.23,6.23,0,0,1,2.34,1.13,4.32,4.32,0,0,1,1.29,1.75,6.13,6.13,0,0,1,.4,2.28v.2a4.22,4.22,0,0,1-.73,2.5,4.94,4.94,0,0,1-2.56,1.68l3.45,6.5a.88.88,0,0,1,.09,1,2.07,2.07,0,0,1-1,1,2,2,0,0,1-1.33.15,1.47,1.47,0,0,1-.94-.58L83.67,56a4.45,4.45,0,0,1-.53,0h-3.2v6.19a1.14,1.14,0,0,1-.48.9,2.25,2.25,0,0,1-2.63-.07,1.3,1.3,0,0,1-.52-1Zm3.63,1.51v5.53h2.61a5.31,5.31,0,0,0,3-.66A2,2,0,0,0,86.49,51v-.54a2.28,2.28,0,0,0-.91-1.93,5,5,0,0,0-3-.71Z"/><path class="cls-1" d="M108.88,45.34a1.48,1.48,0,0,1,.45,1.14,1.39,1.39,0,0,1-.45,1.07,1.87,1.87,0,0,1-1.32.42h-7v4.49h4.66a1.92,1.92,0,0,1,1.35.42,1.45,1.45,0,0,1,.45,1.13,1.37,1.37,0,0,1-.45,1.07,1.92,1.92,0,0,1-1.35.42h-4.66v4.72h7a1.87,1.87,0,0,1,1.32.42,1.46,1.46,0,0,1,.45,1.13,1.41,1.41,0,0,1-.45,1.08,1.91,1.91,0,0,1-1.32.41H98.84a2.15,2.15,0,0,1-1.35-.41,1.2,1.2,0,0,1-.51-.94V46.28a1.2,1.2,0,0,1,.51-.94,2.15,2.15,0,0,1,1.35-.41h8.72A1.91,1.91,0,0,1,108.88,45.34Z"/><path class="cls-1" d="M116.16,46.28a1.2,1.2,0,0,1,.51-.94,2.11,2.11,0,0,1,1.35-.41h4.07a11,11,0,0,1,3.38.46,6.56,6.56,0,0,1,2.36,1.27,5,5,0,0,1,1.36,1.91,6.26,6.26,0,0,1,.44,2.35v.31a5.71,5.71,0,0,1-.4,2.09,4.65,4.65,0,0,1-1.31,1.78,6.76,6.76,0,0,1-2.33,1.24,11.08,11.08,0,0,1-3.5.48h-2.3V62.2a1.21,1.21,0,0,1-.48.93,2.15,2.15,0,0,1-2.64-.07,1.39,1.39,0,0,1-.51-1Zm3.63,1.51v6.28h2.3a6.18,6.18,0,0,0,1.77-.23,4.21,4.21,0,0,0,1.22-.6,2.53,2.53,0,0,0,.72-.86,2.4,2.4,0,0,0,.23-1v-.65a2.69,2.69,0,0,0-.93-2.08,4.43,4.43,0,0,0-3-.85Z"/><path class="cls-1" d="M136.3,52.09a9.06,9.06,0,0,1,.47-2.94,6.38,6.38,0,0,1,1.42-2.36,6.63,6.63,0,0,1,2.44-1.57,10.88,10.88,0,0,1,7,0,6.8,6.8,0,0,1,2.46,1.57,6.29,6.29,0,0,1,1.44,2.36,9.06,9.06,0,0,1,.46,2.94v4a9.06,9.06,0,0,1-.46,2.94,6.29,6.29,0,0,1-1.44,2.36A6.8,6.8,0,0,1,147.64,63a10.88,10.88,0,0,1-7,0,6.63,6.63,0,0,1-2.44-1.57A6.38,6.38,0,0,1,136.77,59a9.06,9.06,0,0,1-.47-2.94Zm3.57,4A4.2,4.2,0,0,0,141,59.47a5.46,5.46,0,0,0,6.24,0,4.31,4.31,0,0,0,1.11-3.34v-4a4.29,4.29,0,0,0-1.11-3.34,5.41,5.41,0,0,0-6.24,0,4.19,4.19,0,0,0-1.15,3.34Z"/><path class="cls-1" d="M159.39,46.28a1.2,1.2,0,0,1,.51-.94,2.11,2.11,0,0,1,1.35-.41h4.38a13.35,13.35,0,0,1,3.53.4,6.21,6.21,0,0,1,2.35,1.13,4.32,4.32,0,0,1,1.29,1.75,6.34,6.34,0,0,1,.4,2.28v.2a4.22,4.22,0,0,1-.73,2.5,5,5,0,0,1-2.56,1.68l3.44,6.5a.9.9,0,0,1,.1,1,2.17,2.17,0,0,1-1,1,2,2,0,0,1-1.34.15,1.48,1.48,0,0,1-.93-.58L166.74,56a4.28,4.28,0,0,1-.52,0H163v6.19a1.14,1.14,0,0,1-.48.9,2.27,2.27,0,0,1-2.64-.07,1.32,1.32,0,0,1-.51-1ZM163,47.79v5.53h2.61a5.3,5.3,0,0,0,3-.66,2,2,0,0,0,.92-1.69v-.54a2.29,2.29,0,0,0-.92-1.93,5,5,0,0,0-3-.71Z"/><path class="cls-1" d="M191.26,44.93a2,2,0,0,1,1.35.41,1.48,1.48,0,0,1,.45,1.14,1.39,1.39,0,0,1-.45,1.07,1.92,1.92,0,0,1-1.35.42H187.2V62.2a1.19,1.19,0,0,1-.49.93,1.88,1.88,0,0,1-1.28.42,2.06,2.06,0,0,1-1.37-.42,1.2,1.2,0,0,1-.5-.93V48H179.9a1.91,1.91,0,0,1-1.29-.42,1.35,1.35,0,0,1-.48-1.07,1.44,1.44,0,0,1,.48-1.14,2,2,0,0,1,1.29-.41Z"/><path class="cls-1" d="M88.26,17a1.48,1.48,0,0,1,.46,1.15,1.39,1.39,0,0,1-.46,1.08,2,2,0,0,1-1.35.42H80.1v4.83h4.8a1.92,1.92,0,0,1,1.35.42A1.46,1.46,0,0,1,86.72,26a1.4,1.4,0,0,1-.47,1.09,1.92,1.92,0,0,1-1.35.42H80.1V34a1.24,1.24,0,0,1-.5.94,2,2,0,0,1-1.32.41A2.2,2.2,0,0,1,76.9,35a1.2,1.2,0,0,1-.52-.94V17.93A1.2,1.2,0,0,1,76.9,17a2.2,2.2,0,0,1,1.38-.41h8.63A2,2,0,0,1,88.26,17Z"/><path class="cls-1" d="M108.29,33.49a1.2,1.2,0,0,1-.19,1,1.92,1.92,0,0,1-1.21.74,2.18,2.18,0,0,1-1.42-.12,1.35,1.35,0,0,1-.78-.78L103.55,31H96.61l-1.18,3.38a1.41,1.41,0,0,1-.81.78,2.13,2.13,0,0,1-1.38.12A2,2,0,0,1,92,34.55a1.14,1.14,0,0,1-.2-1L98,17.5a1.65,1.65,0,0,1,.72-.85,2.43,2.43,0,0,1,1.35-.36,2.49,2.49,0,0,1,1.34.36,1.63,1.63,0,0,1,.73.85ZM97.6,28.17h5L100.11,21Z"/><path class="cls-1" d="M113.22,23.31a7.9,7.9,0,0,1,.47-2.7,6.08,6.08,0,0,1,1.44-2.24,6.91,6.91,0,0,1,2.35-1.52,8.44,8.44,0,0,1,3.21-.56,9.17,9.17,0,0,1,2.29.26,7.27,7.27,0,0,1,1.83.69,4,4,0,0,1,1.21,1,1.86,1.86,0,0,1,.43,1.16,1.11,1.11,0,0,1-.38.9,1.35,1.35,0,0,1-.89.32,3.48,3.48,0,0,1-1-.13,5.23,5.23,0,0,1-1-.45,5.49,5.49,0,0,0-1.1-.49,4.53,4.53,0,0,0-1.51-.21,3.91,3.91,0,0,0-2.62.93,3.54,3.54,0,0,0-1.1,2.86v5.47a3.51,3.51,0,0,0,1.1,2.85,4,4,0,0,0,2.62.91,7.16,7.16,0,0,0,1.48-.13,5.08,5.08,0,0,0,1.07-.39,6.56,6.56,0,0,1,.6-.33,3.55,3.55,0,0,1,.46-.21,2.07,2.07,0,0,1,.43-.1,3.89,3.89,0,0,1,.51,0,1.11,1.11,0,0,1,1.24,1.16,1.86,1.86,0,0,1-.43,1.16,3.65,3.65,0,0,1-1.21,1,7.67,7.67,0,0,1-1.83.68,9.17,9.17,0,0,1-2.29.26,8.44,8.44,0,0,1-3.21-.56,6.91,6.91,0,0,1-2.35-1.52,6.17,6.17,0,0,1-1.44-2.22,7.89,7.89,0,0,1-.47-2.72Z"/><path class="cls-1" d="M132,17.65a1.2,1.2,0,0,1,.51-.94,2.13,2.13,0,0,1,1.4-.42,2,2,0,0,1,1.3.42,1.2,1.2,0,0,1,.51.94V34a1.22,1.22,0,0,1-.51.94,2,2,0,0,1-1.3.42,2.13,2.13,0,0,1-1.4-.42A1.22,1.22,0,0,1,132,34Z"/><path class="cls-1" d="M143.06,17.65a1.2,1.2,0,0,1,.51-.94,2.13,2.13,0,0,1,1.4-.42,2,2,0,0,1,1.3.42,1.2,1.2,0,0,1,.51.94V32h6.78a2,2,0,0,1,1.35.42,1.46,1.46,0,0,1,.46,1.14,1.39,1.39,0,0,1-.46,1.09,2,2,0,0,1-1.35.42h-8.78a2.07,2.07,0,0,1-1.28-.47,1.21,1.21,0,0,1-.44-.89Z"/><path class="cls-1" d="M160.65,17.65a1.2,1.2,0,0,1,.51-.94,2.14,2.14,0,0,1,1.4-.42,2,2,0,0,1,1.31.42,1.22,1.22,0,0,1,.5.94V34a1.24,1.24,0,0,1-.5.94,2,2,0,0,1-1.31.42,2.14,2.14,0,0,1-1.4-.42,1.22,1.22,0,0,1-.51-.94Z"/><path class="cls-1" d="M183.46,16.58a2.06,2.06,0,0,1,1.39.41,1.51,1.51,0,0,1,.46,1.15,1.42,1.42,0,0,1-.46,1.08,2,2,0,0,1-1.39.42H179.3V34a1.24,1.24,0,0,1-.5.94,2,2,0,0,1-1.32.41,2.2,2.2,0,0,1-1.4-.41,1.22,1.22,0,0,1-.51-.94V19.64h-3.75a2,2,0,0,1-1.32-.42,1.35,1.35,0,0,1-.49-1.08A1.43,1.43,0,0,1,170.5,17a2,2,0,0,1,1.32-.41Z"/><path class="cls-1" d="M196.09,28.17l-5.76-9.57a1.05,1.05,0,0,1-.19-1,1.65,1.65,0,0,1,.83-1,2.23,2.23,0,0,1,1.43-.3,1.64,1.64,0,0,1,1,.51L198,25l4.62-8.18a1.64,1.64,0,0,1,1-.51,2.23,2.23,0,0,1,1.43.3,1.58,1.58,0,0,1,.81,1,1.08,1.08,0,0,1-.18,1l-6,9.89V34a1.22,1.22,0,0,1-.49.94,1.93,1.93,0,0,1-1.29.42,2.14,2.14,0,0,1-1.4-.42,1.22,1.22,0,0,1-.51-.94Z"/></g></g></svg>